<svg enable-background="new 0 0 2500 2500" viewBox="0 0 2500 2500" xmlns="http://www.w3.org/2000/svg"><path d="m1284.77 1229.08c-3.5-5.71-8.55-10.73-14.22-14.16l456.61-756.11c31.68-52.45 92.99-79.18 152.99-66.77 54.53 11.28 111.95 20.54 145.61 52.79 40.44 38.76 54.71 102.92 71.36 164.05 16.86 61.89-9.19 127.48-63.86 161.02zm-69.4 41.27c3.5 5.71 8.55 10.73 14.22 14.16l-456.61 756.11c-31.68 52.45-92.99 79.18-152.99 66.77-54.53-11.28-111.95-20.54-145.61-52.79-40.44-38.76-54.71-102.92-71.36-164.05-16.86-61.89 9.19-127.48 63.86-161.02zm69.88-.83c3.2-5.88 5.05-12.76 5.19-19.39l883.08 19.27c61.26 1.34 114.98 41.18 134.11 99.39 17.38 52.9 37.96 107.3 26.76 152.56-13.46 54.38-61.99 98.7-106.7 143.6-45.26 45.45-115.11 55.54-171.43 24.84zm-70.36-39.61c-3.2 5.88-5.05 12.76-5.19 19.39l-883.08-19.27c-61.26-1.34-114.98-41.18-134.11-99.39-17.38-52.9-37.96-107.3-26.76-152.56 13.46-54.38 61.99-98.7 106.7-143.6 45.26-45.45 115.11-55.54 171.43-24.84zm69.88-.83c-3.5-5.71-8.55-10.73-14.22-14.16l456.61-756.11c31.68-52.45 92.99-79.18 152.99-66.77 54.53 11.28 111.95 20.54 145.61 52.79 40.44 38.76 54.71 102.92 71.36 164.05 16.86 61.89-9.19 127.48-63.86 161.02zm.48 40.44c3.2-5.88 5.05-12.76 5.19-19.39l883.08 19.27c61.26 1.34 114.98 41.18 134.11 99.39 17.38 52.9 37.96 107.3 26.76 152.56-13.46 54.38-61.99 98.7-106.7 143.6-45.26 45.45-115.11 55.54-171.43 24.84zm-70.36-39.61c-3.2 5.88-5.05 12.76-5.19 19.39l-883.08-19.27c-61.26-1.34-114.98-41.18-134.11-99.39-17.38-52.9-37.96-107.3-26.76-152.56 13.46-54.38 61.99-98.7 106.7-143.6 45.26-45.45 115.11-55.54 171.43-24.84zm55.72 54.56c5.72-3.48 10.76-8.52 14.2-14.18l754.85 458.69c52.36 31.82 78.93 93.2 66.35 153.17-11.43 54.5-20.84 111.9-53.19 145.47-38.87 40.34-103.07 54.42-164.25 70.91-61.93 16.69-127.45-9.53-160.84-64.3zm-41.08-69.51c-5.72 3.48-10.76 8.52-14.2 14.18l-754.85-458.68c-52.36-31.82-78.93-93.2-66.35-153.17 11.43-54.5 20.84-111.9 53.19-145.47 38.87-40.34 103.07-54.42 164.25-70.91 61.93-16.69 127.45 9.53 160.84 64.3zm21.03 75.12c6.69-.17 13.57-2.03 19.38-5.22l425.95 773.8c29.55 53.68 22 120.13-18.79 165.86-37.06 41.56-73.82 86.63-118.6 99.62-53.8 15.61-116.48-4.16-177.74-20.35-62.02-16.38-105.75-71.77-107.42-135.89zm-.98-80.73c-6.69.17-13.57 2.03-19.38 5.22l-425.95-773.8c-29.55-53.68-22-120.13 18.79-165.86 37.06-41.56 73.82-86.63 118.6-99.62 53.8-15.61 116.48 4.16 177.74 20.35 62.02 16.38 105.75 71.77 107.42 135.89zm-19.36 75.52c5.87 3.21 12.76 5.06 19.38 5.21l-20.33 883.05c-1.41 61.26-41.32 114.93-99.55 133.99-52.92 17.32-107.35 37.83-152.59 26.58-54.36-13.53-98.63-62.11-143.47-106.87-45.4-45.32-55.4-115.18-24.63-171.46zm39.7-70.31c-5.87-3.21-12.76-5.06-19.38-5.21l20.33-883.05c1.41-61.26 41.32-114.93 99.55-133.99 52.92-17.32 107.35-37.83 152.59-26.58 54.36 13.53 98.63 62.11 143.47 106.87 45.4 45.32 55.4 115.18 24.63 171.46zm-60.21 35.72c.18 6.69 2.05 13.57 5.26 19.37l-773.06 427.29c-53.63 29.64-120.1 22.2-165.9-18.5-41.62-36.99-86.76-73.67-99.83-118.42-15.7-53.77 3.96-116.49 20.04-177.78 16.28-62.05 71.58-105.88 135.71-107.65zm80.73-1.13c-.18-6.69-2.05-13.57-5.26-19.37l773.06-427.29c53.63-29.64 120.1-22.2 165.9 18.5 41.62 36.99 86.76 73.67 99.83 118.42 15.7 53.77-3.96 116.49-20.04 177.78-16.28 62.05-71.58 105.88-135.71 107.65z" fill="#ff4e00"/></svg>